<svg width="32" height="27" viewBox="0 0 32 27" fill="none" xmlns="http://www.w3.org/2000/svg">
<path d="M17.0948 11.4102V14.1699H3.24325V11.4102H17.0948ZM3.77059 0.40625V26H0.378012V0.40625H3.77059ZM20.0479 0.40625V26H16.6729V0.40625H20.0479ZM27.6348 24.2773C27.6348 23.7266 27.8047 23.2637 28.1445 22.8887C28.4961 22.502 29 22.3086 29.6562 22.3086C30.3125 22.3086 30.8105 22.502 31.1504 22.8887C31.502 23.2637 31.6777 23.7266 31.6777 24.2773C31.6777 24.8164 31.502 25.2734 31.1504 25.6484C30.8105 26.0234 30.3125 26.2109 29.6562 26.2109C29 26.2109 28.4961 26.0234 28.1445 25.6484C27.8047 25.2734 27.6348 24.8164 27.6348 24.2773Z" fill="#EBCB80"/>
</svg>
