<svg xmlns="http://www.w3.org/2000/svg">
  <symbol id="instagram" viewBox="0 0 26 24">
    <mask id="mask0_1_205" style="mask-type:luminance" maskUnits="userSpaceOnUse" x="0" y="0" width="26" height="24">
      <path fill-rule="evenodd" clip-rule="evenodd" d="M0.712646 23.96H25.4052V0H0.712646V23.96Z" fill="white" />
    </mask>
    <g mask="url(#mask0_1_205)">
      <path fill-rule="evenodd" clip-rule="evenodd"
        d="M21.7547 20.4507H18.0932V14.8807C18.0932 13.5527 18.0692 11.844 16.1898 11.844C14.2843 11.844 13.9935 13.2913 13.9935 14.786V20.4507H10.3355V8.99733H13.846V10.5633H13.8961C14.3845 9.66267 15.58 8.71333 17.3621 8.71333C21.0695 8.71333 21.7547 11.0847 21.7547 14.1693V20.4507ZM6.20552 7.43267C5.02916 7.43267 4.08121 6.508 4.08121 5.368C4.08121 4.22867 5.02916 3.304 6.20552 3.304C7.37707 3.304 8.32845 4.22867 8.32845 5.368C8.32845 6.508 7.37707 7.43267 6.20552 7.43267ZM4.37204 20.4507H8.03762V8.99733H4.37204V20.4507ZM23.5786 0H2.53446C1.52958 0 0.712646 0.774667 0.712646 1.73067V22.268C0.712646 23.224 1.52958 24 2.53446 24H23.5786C24.5862 24 25.4052 23.224 25.4052 22.268V1.73067C25.4052 0.774667 24.5862 0 23.5786 0Z"
        fill="#EBCB80" />
    </g>
  </symbol>
  <symbol id="google">
    <path fill-rule="evenodd" clip-rule="evenodd"
      d="M11.2203 9.80571V13.728H17.5838C17.3273 15.4113 15.6603 18.6635 11.2203 18.6635C7.38937 18.6635 4.26373 15.4277 4.26373 11.44C4.26373 7.45234 7.38937 4.21646 11.2203 4.21646C13.4002 4.21646 14.8589 5.16434 15.6924 5.98149L18.7379 2.99074C16.7823 1.12766 14.2498 0 11.2203 0C5.01709 0 3.05176e-05 5.11531 3.05176e-05 11.44C3.05176e-05 17.7647 5.01709 22.88 11.2203 22.88C17.696 22.88 21.9917 18.2386 21.9917 11.7015C21.9917 10.9497 21.9116 10.3777 21.8154 9.80571H11.2203Z"
      fill="#EBCB80" />
    <path fill-rule="evenodd" clip-rule="evenodd"
      d="M35.2637 9.80568H32.0579V6.53711H28.8521V9.80568H25.6463V13.0743H28.8521V16.3428H32.0579V13.0743H35.2637"
      fill="#EBCB80" />
  </symbol>
  <symbol id="twitter">
    <mask id="mask0_1_189" style="mask-type:luminance" maskUnits="userSpaceOnUse" x="0" y="0" width="30" height="24">
      <path fill-rule="evenodd" clip-rule="evenodd" d="M0.00646973 23.9935H29.4232V0.0883789H0.00646973V23.9935Z"
        fill="white" />
    </mask>
    <g mask="url(#mask0_1_189)">
      <path fill-rule="evenodd" clip-rule="evenodd"
        d="M29.4231 2.91898C28.3406 3.39909 27.1771 3.72357 25.9561 3.86951C27.2024 3.12239 28.1595 1.93939 28.6103 0.52985C27.4439 1.22154 26.152 1.72393 24.777 1.99471C23.6758 0.821509 22.107 0.0883789 20.3708 0.0883789C17.037 0.0883789 14.3341 2.79112 14.3341 6.12476C14.3341 6.59787 14.3876 7.0586 14.4905 7.5004C9.47354 7.24867 5.02558 4.84544 2.04829 1.19335C1.52868 2.0849 1.231 3.12185 1.231 4.22811C1.231 6.32235 2.29679 8.17003 3.91652 9.2525C2.92692 9.22119 1.9962 8.94965 1.18224 8.49753C1.18181 8.52271 1.18181 8.548 1.18181 8.5734C1.18181 11.4982 3.2626 13.938 6.02411 14.4925C5.51752 14.6304 4.98425 14.7042 4.43365 14.7042C4.0447 14.7042 3.66651 14.6664 3.29801 14.5959C4.06612 16.9942 6.29543 18.7394 8.93693 18.7881C6.871 20.4071 4.26813 21.3722 1.44 21.3722C0.952789 21.3722 0.472251 21.3437 0 21.2879C2.67143 23.0006 5.84448 23.9999 9.25345 23.9999C20.3567 23.9999 26.4284 14.8017 26.4284 6.82474C26.4284 6.563 26.4226 6.30266 26.411 6.04382C27.5903 5.19274 28.6138 4.12953 29.4231 2.91898Z"
        fill="#EBCB80" />
    </g>
  </symbol>
  <symbol id="facebook">
    <mask id="mask0_1_192" style="mask-type:luminance" maskUnits="userSpaceOnUse" x="0" y="0" width="25" height="24">
      <path fill-rule="evenodd" clip-rule="evenodd" d="M0.538513 23.9905H24.529V0H0.538513V23.9905Z" fill="white" />
    </mask>
    <g mask="url(#mask0_1_192)">
      <path fill-rule="evenodd" clip-rule="evenodd"
        d="M23.2049 0H1.86256C1.13123 0 0.538513 0.592719 0.538513 1.32404V22.6664C0.538513 23.3977 1.13123 23.9906 1.86256 23.9906H13.3526V14.7001H10.2262V11.0795H13.3526V8.40935C13.3526 5.31074 15.2451 3.62346 18.0093 3.62346C19.3335 3.62346 20.4715 3.72198 20.8031 3.76602V7.00431L18.8859 7.00521C17.3826 7.00521 17.0915 7.71955 17.0915 8.76782V11.0795H20.6768L20.2101 14.7001H17.0915V23.9906H23.2049C23.9362 23.9906 24.529 23.3977 24.529 22.6664V1.32404C24.529 0.592719 23.9362 0 23.2049 0Z"
        fill="#EBCB80" />
    </g>
  </symbol>
  <symbol id="camera">
    <mask id="mask0_1_195" style="mask-type:luminance" maskUnits="userSpaceOnUse" x="0" y="0" width="24" height="24">
      <path fill-rule="evenodd" clip-rule="evenodd" d="M3.05176e-05 23.995H24V0H3.05176e-05V23.995Z" fill="white" />
    </mask>
    <g mask="url(#mask0_1_195)">
      <path fill-rule="evenodd" clip-rule="evenodd"
        d="M21.3334 6.66667C21.3334 7.03483 21.0349 7.33333 20.6667 7.33333H17.3334C16.9652 7.33333 16.6667 7.03483 16.6667 6.66667V3.33333C16.6667 2.96517 16.9652 2.66667 17.3334 2.66667H20.6667C21.0349 2.66667 21.3334 2.96517 21.3334 3.33333V6.66667ZM21.3334 20.6667C21.3334 21.0348 21.0349 21.3333 20.6667 21.3333H3.33336C2.9652 21.3333 2.6667 21.0348 2.6667 20.6667V10H4.94286C4.76303 10.6357 4.6667 11.3067 4.6667 12C4.6667 16.0501 7.94995 19.3333 12 19.3333C16.0501 19.3333 19.3334 16.0501 19.3334 12C19.3334 11.3067 19.237 10.6357 19.0572 10H21.3334V20.6667ZM12 7.33333C14.5774 7.33333 16.6667 9.42267 16.6667 12C16.6667 14.5773 14.5774 16.6667 12 16.6667C9.4227 16.6667 7.33336 14.5773 7.33336 12C7.33336 9.42267 9.4227 7.33333 12 7.33333ZM20.6667 0H3.33336C1.49245 0 3.05176e-05 1.49242 3.05176e-05 3.33333V20.6667C3.05176e-05 22.5076 1.49245 24 3.33336 24H20.6667C22.5076 24 24 22.5076 24 20.6667V3.33333C24 1.49242 22.5076 0 20.6667 0Z"
        fill="#EBCB80" />
    </g>
  </symbol>
</svg>